<svg xmlns="http://www.w3.org/2000/svg" id="learning-small" fill="currentColor" aria-hidden="true" data-supported-dps="24x24 40x40" viewBox="0 0 24 24" data-token-id="394" width="24" height="24" class="f83528bb _1207225e _1a1d090c _456bd784" role="img" aria-label="" style="width: 24px; min-width: 24px; height: 24px; min-height: 24px;"><path d="M22 5v14H2V5zm1-2H1a1 1 0 0 0-1 1v16a1 1 0 0 0 1 1h22a1 1 0 0 0 1-1V4a1 1 0 0 0-1-1"></path><path d="M2 5v14h10V5zm8 12H4v-2h6zm0-4H4v-2h6zm0-4H4V7h6z" opacity="0.25"></path><path d="M14 7h6v2h-6zm0 4h6v2h-6zm0 4h6v2h-6z" opacity="0.55"></path><path d="M10 7.53v8.93a.28.28 0 0 0 .44.23l6.43-4.44a.33.33 0 0 0 0-.52L10.44 7.3a.28.28 0 0 0-.44.23"></path></svg>