<svg xmlns="http://www.w3.org/2000/svg" id="job-medium" fill="currentColor" data-supported-dps="24x24" viewBox="0 0 24 24" data-token-id="183" width="24" height="24" class="f83528bb _1207225e _1a1d090c _456bd784" role="img" aria-label="" aria-hidden="true" style="width: 24px; min-width: 24px; height: 24px; min-height: 24px;"><path d="M17 6V5a3 3 0 0 0-3-3h-4a3 3 0 0 0-3 3v1H2v4a3 3 0 0 0 3 3h14a3 3 0 0 0 3-3V6zM9 5a1 1 0 0 1 1-1h4a1 1 0 0 1 1 1v1H9zm10 9a4 4 0 0 0 3-1.38V17a3 3 0 0 1-3 3H5a3 3 0 0 1-3-3v-4.38A4 4 0 0 0 5 14z"></path></svg>